<?xml version="1.0" encoding="utf-8"?>
<!-- Generator: Adobe Illustrator 16.0.0, SVG Export Plug-In . SVG Version: 6.00 Build 0)  -->
<!DOCTYPE svg PUBLIC "-//W3C//DTD SVG 1.1//EN" "http://www.w3.org/Graphics/SVG/1.1/DTD/svg11.dtd">
<svg version="1.1" xmlns="http://www.w3.org/2000/svg" xmlns:xlink="http://www.w3.org/1999/xlink" x="0px" y="0px" width="750px"
	 height="500px" viewBox="0 0 750 500" enable-background="new 0 0 750 500" xml:space="preserve">
<g id="BACKGROUND">
	<g>
		<g>
			<rect y="0.001" fill="#D7F2EF" width="750" height="500"/>
		</g>
	</g>
</g>
<g id="OBJECTS">
	<g>
		<g>
			<defs>
				<rect id="SVGID_1_" x="79" y="60.019" width="592" height="379.967"/>
			</defs>
			<clipPath id="SVGID_2_">
				<use xlink:href="#SVGID_1_"  overflow="visible"/>
			</clipPath>
			<g clip-path="url(#SVGID_2_)">
				<g>
					<path fill="#F6B684" d="M525.559,271.505c-7.914,9.554-26.644,64.849-26.644,64.849l16.274-5.965
						c0,0,41.131-67.372,33.486-69.717C541.027,258.325,533.472,261.95,525.559,271.505z"/>
				</g>
				<g>
					<g>
						<g>
							<g>
								<path fill="#514248" d="M525.945,637.904c0,0-2.791,6.23-8.923,10.012c-2.984,1.841-8.705,2.662-13.264,3.728
									c-2.727,0.64-3.376,5.82,0.846,6.317c9.673,1.136,32.266,0.272,38.719-3.774c5.306-3.509-0.563-15.593-0.563-15.593
									L525.945,637.904z"/>
								<path fill="#32B8B1" d="M562.444,430.481c0,0,16.56,46.145-16.542,132.931c0,0,6.992,54.226,0.628,79.437l-26.55-0.71
									c0,0-13.332-62.644-14.207-74.357c-0.878-11.714-3.466-105.291,18.323-144.518L562.444,430.481z"/>
							</g>
						</g>
						<g>
							<g>
								<path fill="#514248" d="M578.313,641.781c0,0-2.751,6.133-8.784,9.855c-2.938,1.811-8.566,2.617-13.054,3.667
									c-2.684,0.633-3.322,5.73,0.833,6.222c9.513,1.117,31.754,0.266,38.106-3.719c5.22-3.457-0.556-15.342-0.556-15.342
									L578.313,641.781z"/>
								<path fill="#32B8B1" d="M625.098,426.828c0,0,11.5,55.55-21.597,142.343c0,0,2.035,51.507-4.324,76.718l-26.554-0.707
									c0,0-13.328-62.646-14.206-74.359c-0.661-8.885-7.867-105.95,0.878-147.927c2.785-13.37,15.578,3.419,20.84-6.056
									L625.098,426.828z"/>
							</g>
						</g>
						<path opacity="0.07" fill="#070707" d="M625.956,432.665c0,0-83.986,9.303-105.562-1.689l8.574-26.302l94.688,2.047
							L625.956,432.665z"/>
					</g>
					<polygon opacity="0.07" fill="#070707" points="551.307,477.053 556.748,530.514 552.462,542.916 					"/>
				</g>
				<path fill="#F6B684" d="M617.488,309.022c1.579,15.892-71.992,0.737-71.58-12.589c0.385-12.556,4.016-35.058,6.44-43.557
					c6.854-24.036,25.248-3.826,42.818-6.191C599.839,261.29,608.634,269.807,617.488,309.022z"/>
				<path fill="#32B8B1" d="M628.425,280.895c-6.065-11.375-12.552-15.123-25.47-22.965c-2.88-1.748-4.399-2.646-4.399-2.646
					s-25.71,14.096-47.009,0.479c0,0,0.95-2.243-15.991,6.57c-8.21,4.27-14.92,51.929-15.614,61.095
					c-0.714,9.439-6.298,70.997-5.588,103.008c16.31,9.252,115.244,1.5,115.244,1.5S640.878,320.083,628.425,280.895z"/>
				<g>
					<g>
						<g>
							<path opacity="0.07" fill="#070707" d="M552.416,252.354c0,0,24.799,2.802,32.422-0.716c0,0-8.99,6.989-33.054,4.287
								L552.416,252.354z"/>
							<g>
								<g>
									<path fill="#F6B684" d="M587.81,139.67c0,0,10.714,2.556,21.947,9.124c11.521,6.728,23.586,17.679,25.201,34.408
										c0.932,9.632,0.099,18.942-2.457,27.475c-6.215,20.729-22.622,36.841-48.701,41.729c-18.403,3.453-38.33,0.91-53.138-9.984
										c-14.814-10.896-23.676-33.996-19.984-53.236c3.688-19.236,12.538-29.44,26.206-38.334
										C550.551,141.959,568.197,138.234,587.81,139.67z"/>
									<path fill="#D78A49" d="M564.768,216.353c-2.961,3.685-9.336,4.842-10.748-0.937c-0.471-1.928-3.513-1.339-3.036,0.605
										c0.799,3.264,3.258,5.957,6.662,6.548c3.893,0.674,7.334-1.55,9.675-4.464
										C568.573,216.551,566.008,214.809,564.768,216.353L564.768,216.353z"/>
									<path fill="#D78A49" d="M558.342,209.252c-0.037,0-0.075,0-0.112-0.003c-0.174-0.018-1.733-0.161-2.741-0.45
										c-2.434-0.705-3.304-1.995-3.604-2.953c-0.311-0.99-0.319-2.615,1.396-4.722c1.522-1.868,1.789-5.65,1.762-6.95
										c-0.011-0.69,0.534-1.259,1.221-1.272c0.011,0,0.019,0,0.027,0c0.677,0,1.23,0.538,1.247,1.22
										c0.002,0.227,0.091,5.613-2.325,8.577c-0.781,0.958-1.127,1.834-0.946,2.402c0.164,0.534,0.846,0.995,1.91,1.3
										c0.658,0.189,1.864,0.326,2.272,0.364c0.688,0.059,1.196,0.665,1.133,1.351
										C559.524,208.762,558.98,209.254,558.342,209.252z"/>
									<path fill="#2D2429" d="M593.402,196.396c-0.084,2.736-1.723,4.901-3.656,4.843c-1.936-0.062-3.435-2.327-3.348-5.061
										c0.084-2.738,1.722-4.906,3.658-4.845C591.988,191.394,593.488,193.659,593.402,196.396z"/>
									<path fill="#2D2429" d="M539.663,194.531c-0.085,2.739-1.723,4.907-3.659,4.845c-1.933-0.059-3.432-2.325-3.346-5.061
										c0.086-2.737,1.723-4.903,3.659-4.843C538.251,189.534,539.747,191.798,539.663,194.531z"/>
									<path opacity="0.32" fill="#E59A53" d="M620.412,213.071c0,7.561-6.128,13.684-13.682,13.684
										c-7.56,0-13.686-6.124-13.686-13.684c0-7.552,6.126-13.679,13.686-13.679C614.284,199.393,620.412,205.519,620.412,213.071
										z"/>
									<path opacity="0.32" fill="#E59A53" d="M511.906,197.32c2.047-1.379,4.515-2.189,7.172-2.189
										c7.086,0,12.831,5.746,12.831,12.833c0,7.082-5.745,12.829-12.831,12.829c-2.07,0-4.027-0.49-5.759-1.362"/>
								</g>
							</g>
						</g>
						<path fill="#331A13" d="M510.206,147.559c1.614-1.215,3.114-2.084,4.484-2.722c-2.155-9.475-1.258-23.059,20.229-25.663
							c0,0,0.832-13.249,17.74-13.249c12.468,0,28.007,12.672,35.308,19.327c9.006-0.077,17.702,0.827,24.814,3.664
							c22.292,8.881,36.755,32.524,36.755,54.979c0,22.449-19.279,41.774-25.095,43.906c5.399-9.36,10.718-20.604,5.736-16.776
							c-6.213,4.77-8.566,15.269-8.566,15.269s-13.133-0.277-8.83-4.58c4.304-4.3,9.606-35.193-3.393-38.464
							c-34.707-8.74-67.441-39.468-88.282-11.671c-17.091,22.786-4.445,53.376-4.445,53.376
							c-11.747-12.458-10.968-30.985-8.411-43.948c-0.908-0.979-1.993-2.479-3.287-4.722
							C498.875,165.738,502.823,153.121,510.206,147.559z"/>
					</g>
				</g>
				<g>
					<path fill="#32B8B1" d="M598.556,255.283c0,0,20.358,4.499,30.8,20.643c11.522,17.814,0,39.988,0,39.988
						s-4.923,7.309-15.33,12.497c-3.422,1.705-10.991,3.786-10.991,3.786s-9.559-24.516-9.478-41.278
						C593.637,274.157,598.556,255.283,598.556,255.283z"/>
					<path opacity="0.07" fill="#070707" d="M599.716,318.21c0,0,7.457,11.212,8.804,12.019c1.348,0.811,3.169,0.063,7.809-3.103
						l2.368,4.09c0,0-3.807,3.546-9.354,3.568C605.233,334.8,599.716,318.21,599.716,318.21"/>
				</g>
				<g>
					<g>
						
							<ellipse transform="matrix(0.9931 -0.1172 0.1172 0.9931 -35.8134 66.0455)" fill="#DCDFF2" cx="543.906" cy="337.668" rx="9.086" ry="11.191"/>
						<path fill="#1F3B3F" d="M548.592,337.113c0.638,5.402-2.4,10.194-6.783,10.711c-4.386,0.517-8.453-3.438-9.088-8.838
							c-0.638-5.4,2.397-10.197,6.782-10.713C543.887,327.757,547.955,331.715,548.592,337.113z"/>
					</g>
					
						<path fill="none" stroke="#1F3B3F" stroke-width="2.4742" stroke-linecap="round" stroke-linejoin="round" stroke-miterlimit="10" d="
						M540.656,330.263c0,0,1.258-50.481,3.916-63.114c0.993-4.737,3.139-9.475,6.74-12.063"/>
				</g>
				<g>
					
						<path fill="none" stroke="#1F3B3F" stroke-width="2.4742" stroke-linecap="round" stroke-linejoin="round" stroke-miterlimit="10" d="
						M597.681,284.305c2.615-7.96,4.407-27.298-0.153-31.354"/>
					<g>
						
							<path fill="none" stroke="#1F3B3F" stroke-width="2.4742" stroke-linecap="round" stroke-linejoin="round" stroke-miterlimit="10" d="
							M572.834,323.324c0,0,1.848-46.76,22.54-40.162c13.079,4.17,12.923,40.162,12.923,40.162"/>
						<path fill="#DCDFF2" d="M576.199,324.672c0,2.129-1.508,3.85-3.365,3.85c-1.86,0-3.369-1.721-3.369-3.85
							c0-2.124,1.509-3.847,3.369-3.847C574.691,320.825,576.199,322.548,576.199,324.672z"/>
						<path fill="#DCDFF2" d="M611.662,325.91c0,2.125-1.509,3.85-3.365,3.85c-1.86,0-3.369-1.725-3.369-3.85
							c0-2.124,1.509-3.849,3.369-3.849C610.153,322.062,611.662,323.786,611.662,325.91z"/>
					</g>
				</g>
				<g>
					<g>
						<path opacity="0.07" fill="#070707" d="M596.08,308.037l-9.252,20.223l-9.375-2.284l-30.411,21.036
							c0,0,23.779,13.487,38.068,15.548c14.292,2.058,29.154-9.691,36.242-27.141c7.088-17.446,8.003-19.505,8.003-19.505
							L596.08,308.037z"/>
						<path fill="#F6B684" d="M596.08,308.037l-9.252,20.223l-9.375-2.284l-29.082,20.113c0,0,22.45,12.584,36.739,14.641
							c14.292,2.058,29.548-6.354,36.637-23.804c7.088-17.449,7.608-21.012,7.608-21.012L596.08,308.037z"/>
						<path fill="#F6B684" d="M578.982,314.55l2.891,11.96l6.116-0.787l4.868-10.643C592.857,315.08,586.299,312.265,578.982,314.55
							z"/>
						<path opacity="0.07" fill="#070707" d="M523.675,292.162l-1.745,25.297c0,0-8.55,11.335-14.288,12.672
							c-4.336-5.825-2.653-10.09,0.613-13.05c5.53-5.01,11.972-1.432,11.972-1.432L523.675,292.162z"/>
						<path fill="#F6B684" d="M525.319,319.636l-1.081,7.227l-16.296,3.001c0,0-4.346-6.405,0-11.436
							c2.56-2.964,7.605-3.656,7.605-3.656l9.771,4.115"/>
						<path opacity="0.07" fill="#070707" d="M570.516,317.888l10.823,8.974l0.99,0.303c0,0-47.436,32.052-65.219,32.191
							c0.536-5.861-8.383-10.027-7.012-20.088c1.374-10.062-2.524-10.021-2.524-10.021L570.516,317.888z"/>
						<path fill="#F6B684" d="M579.937,314.28l1.937,12.229c0,0-46.315,30.646-64.099,30.789
							c-17.606,0.145-21.221-8.981-19.436-18.977c1.144-6.403,7.724-7.847,7.724-7.847L579.937,314.28z"/>
						<polygon opacity="0.07" fill="#070707" points="591.503,314.611 586.726,325.885 587.989,325.723 592.857,315.08 						"/>
					</g>
					<g>
						<polygon opacity="0.07" fill="#070707" points="591.475,296.847 590.517,306.91 595.729,307.956 594.855,310.713 
							587.22,308.037 						"/>
						<polygon opacity="0.07" fill="#070707" points="632.851,310.64 631.939,316.561 629.355,315.914 628.166,319.098 
							632.851,319.098 						"/>
						<polygon fill="#32B8B1" points="601.273,284.745 592.771,307.257 629.355,315.914 634.421,296.347 						"/>
					</g>
				</g>
				<path fill="#32B8B1" d="M519.9,277.067c0,0-7.287,12.492-9.629,19.779s-2.342,7.287-2.342,7.287l20.039,3.903l10.149-46.585
					C538.118,261.452,528.749,264.836,519.9,277.067z"/>
				<polygon opacity="0.07" fill="#070707" points="523.023,286.263 520.156,306.516 522.145,306.516 				"/>
			</g>
			<g clip-path="url(#SVGID_2_)">
				<g>
					<g>
						<path fill="#C4855B" d="M130.381,408.682c0,0,0.178,18.689,4.795,26.593l2.59-4.981l2.397-19.997L130.381,408.682z"/>
						<path fill="#FFFFFF" d="M159.5,257.456c0,0-10.76,2.938-16.672,20.028c-6.451,18.643-12.831,55.271-14.965,74.918
							c-4.088,37.653-2.884,54.734-2.884,54.734l25.876,6.855L159.5,257.456z"/>
						<path opacity="0.07" fill="#070707" d="M150.646,306.604c0,0-8.254,88.547-10.607,104.519l-4.625-0.891L150.646,306.604z"/>
					</g>
					<g>
						<path fill="#2C2851" d="M169.439,620.664c0,0-3.469,6.393-10.289,9.91c-3.322,1.711-9.459,2.113-14.395,2.892
							c-2.944,0.455-0.351,6.501,4.092,7.367c10.176,1.99,30.546,2.308,37.729-1.476c5.918-3.29,0.671-16.597,0.671-16.597
							L169.439,620.664z"/>
						<path fill="#2C2851" d="M235.283,623.299c0,0-3.199,6.54-9.876,10.343c-3.241,1.845-8.49,2.755-13.376,3.728
							c-2.924,0.584-3.267,4.8,0.936,6.496c16.918,6.854,31.055,0.08,38.076-3.992c5.771-3.544,2.113-15.205,2.113-15.205
							L235.283,623.299z"/>
						<path fill="#AB3336" d="M192.867,485.473c-4.14,8.881-5.91,35.03-11.176,45.737c0,0,12.107,54.62,11.176,92.089h-37.112
							c0,0-11.187-73.937-13.012-87.926c-0.88-6.726,2.658-35.527,5.501-59.594L192.867,485.473z"/>
						<g>
							<path fill="#AB3336" d="M239.116,496.931c-3.632,13.286-4.988,27.153-3.02,34.263c15.071,54.562,20.044,72.982,21.446,94.701
								l-31.77,2.078c0,0-24.469-75.67-29.777-88.736c-2.782-6.848-2.833-19.682,0-50.572L239.116,496.931z"/>
						</g>
					</g>
					<path fill="#FFFFFF" d="M144.19,323.456c0,0,2.576,8.168,2.576,20.312c0,12.146-19.173,173.302-19.173,173.302
						s131.345,22.435,130.645,4.659c-0.698-17.778-3.479-165.336-3.479-165.336s7.003-5.136,7.812-20.527
						c2.023-38.534-7.162-64.986-26.56-76.185c-19.39-11.196-28.664-11.777-42.541-11.991c-15.608-0.246-25.034,1.647-33.969,7.523
						C132.298,273.105,144.19,323.456,144.19,323.456z"/>
					<path opacity="0.08" fill="#101010" d="M177.379,345.248l0.317-2.989c0.004-0.072,0.03-0.143,0.065-0.202l42.421-47.576
						l-7.521-9.772l12.307-1.022l7.04-26.229l2.469,1.25l-5.816,27.44l-10.359,1.089l5.637,8.55l-45.543,46.436l-0.257,2.985"/>
					<polyline opacity="0.08" fill="#101010" points="176.232,365.218 163.262,521.792 159.5,521.792 175.465,365.265 					"/>
					<polygon opacity="0.08" fill="#101010" points="167.61,251.035 166.281,273.648 173.948,277.969 165.394,279.729 
						177.637,342.049 161.364,277.553 166.86,276.686 162.525,274.083 161.86,253.767 					"/>
					<path fill="#32B8B1" d="M223.717,253.368l-45.144,84.038l-0.562-88.912C178.011,248.494,214.169,251.529,223.717,253.368z"/>
					<g>
						<path fill="#C4855B" d="M177.807,249.005c1.047-2.775,1.865-5.587,2.387-8.649c19.5,2.632,42.141-25.154,42.13,2.593
							c0,2.405-1.635,7.898,1.392,10.419c0,0-12.146,3.683-25.882,3.679c-13.739-0.009-19.824-8.553-19.824-8.553"/>
					</g>
					<g>
						<g>
							<g>
								<path fill="#C4855B" d="M220.74,121.875c0,0,11.923,2.836,24.431,10.134c12.817,7.486,26.248,19.658,28.055,38.274
									c1.04,10.716,0.12,21.08-2.721,30.568c-6.901,23.073-25.152,41.007-54.162,46.463c-20.478,3.85-42.651,1.03-59.135-11.083
									c-16.486-12.113-26.359-37.813-22.263-59.223c4.092-21.406,13.933-32.766,29.135-42.667
									C179.283,124.435,198.919,120.284,220.74,121.875z"/>
								<g>
									<path opacity="0.21" fill="#070707" d="M187.989,199.309c-0.044,0-0.084-0.001-0.123-0.005
										c-0.195-0.018-1.932-0.177-3.052-0.498c-2.709-0.782-3.672-2.213-4.008-3.284c-0.347-1.102-0.357-2.911,1.551-5.252
										c1.692-2.081,1.983-6.292,1.955-7.738c-0.012-0.765,0.595-1.397,1.358-1.414c0.008,0,0.023,0,0.027,0
										c0.756,0,1.371,0.599,1.387,1.354c0.008,0.253,0.109,6.249-2.578,9.547c-0.871,1.067-1.253,2.042-1.053,2.678
										c0.182,0.588,0.937,1.104,2.125,1.441c0.731,0.211,2.074,0.363,2.531,0.404c0.762,0.068,1.326,0.739,1.255,1.502
										C189.304,198.767,188.696,199.309,187.989,199.309z"/>
								</g>
								<path fill="#0E251F" d="M158.326,185.168c-0.105,2.833,1.434,5.187,3.438,5.258c2.004,0.077,3.706-2.161,3.811-4.991
									c0.106-2.833-1.438-5.188-3.438-5.259C160.135,180.103,158.426,182.339,158.326,185.168z"/>
								<path fill="#0E251F" d="M214.187,187.322c-0.1,2.832,1.441,5.187,3.442,5.26c2,0.072,3.709-2.163,3.814-4.997
									c0.101-2.83-1.438-5.186-3.439-5.256C216.001,182.258,214.292,184.491,214.187,187.322z"/>
								<path opacity="0.07" fill="#070707" d="M218.512,206.145c0.128,6.92,5.839,12.422,12.757,12.298
									c6.916-0.127,12.423-5.835,12.297-12.754c-0.125-6.921-5.834-12.428-12.753-12.301
									C223.893,193.516,218.389,199.227,218.512,206.145z"/>
								<path opacity="0.07" fill="#070707" d="M140.829,213.45c1.087,0.285,2.231,0.428,3.409,0.403
									c6.917-0.124,12.421-5.833,12.296-12.752c-0.125-6.919-5.84-12.423-12.757-12.299c-1.594,0.03-3.116,0.357-4.508,0.928
									c0,0-0.711,8.274,0.061,14.075C140.103,209.602,140.829,213.45,140.829,213.45z"/>
								<g>
									<path fill="#FDFEFF" d="M179.178,205.737c0.857,3.511,3.504,6.404,7.162,7.037c4.188,0.726,7.888-1.664,10.402-4.796
										C198.084,206.308,178.67,203.648,179.178,205.737z"/>
								</g>
							</g>
						</g>
						<g>
							<g>
								<path fill="#514248" d="M146.392,165.773c1.988-1.745,3.108-2.15,4.806-0.043c0.661,0.814,1.608,1.347,2.576,1.748
									c7.546,3.115,14.229-4.589,15.57-12.643c-2.292,5.641,1.961,11.673,7.843,13.248c5.883,1.572,12.628-4.384,13.46-10.415
									c-1.773,5.102,3.25,10.665,8.639,11.021c5.388,0.354,10.373-3.065,13.842-7.205c-2.297,3.933-0.508,9.375,3.183,12.04
									c3.692,2.665,8.707,2.915,13.097,1.707c4.392-1.205,5.641-0.741,9.449-3.242c-0.339,4.601-1.412,9.126,0.604,13.273
									c2.017,4.147,6.512,6.531,10.652,4.498c-5.898,4.467-8.827,12.739-3.304,17.66c-1.723,2.699-4.485,4.641-6.044,7.437
									c-1.561,2.796-1.148,7.211,1.915,8.145c-4.227,3.05-8.016,7.574-7.866,12.785c0.148,5.209,6.176,10.009,10.672,7.374
									c1.877,4,6.708,6.368,11.021,5.399c4.312-0.967,7.668-5.17,7.657-9.592c5.137,0.896,10.986,0.432,14.701-3.226
									c3.716-3.658,3.476-11.163-1.343-13.151c4.373-0.729,8.686-2.961,10.979-6.755c2.293-3.796,2.024-9.249-1.299-12.185
									c-1.356-1.198-3.173-2.015-3.925-3.659c-0.857-1.878,0.021-4.05,0.866-5.933c2.188-4.878,5.071-7.988,4.498-13.303
									c-0.573-5.316-5.913-12.544-9.651-14.075c-0.563-4.906-0.069-8.787-2.438-13.27c-2.368-4.482-5.088-7.252-10.155-7.052
									c1.789-4.158,3.086-8.926,1.469-13.155c-1.574-4.116-5.675-6.842-9.949-7.926c-4.272-1.083-8.757-0.777-13.154-0.464
									c-1.006-7.17-55.805-13.251-56.775-13.526c-3.318-0.946-45.171,35.092-45.962,36.173c-0.947,1.294-8.007-3.378-15.12,4.021
									c-4.126,4.292-2.207,10.913-3.378,11.42c-4.366,1.89-10.129,1.327-12.723,7.156c-1.593,3.583-0.35,12.648,3.562,12.858
									c-2.293,3.522-4.664,7.267-4.858,11.463c-0.197,4.203,2.706,8.85,6.907,8.958c-2.233,3.62-4.227,7.624-4.171,11.877
									c0.059,4.252,2.775,8.733,6.961,9.493c-1.727,4.355-3.432,9.401-1.226,13.538c2.064,3.865,7.575,5.384,11.328,3.12
									c2.43,4.537,8.374,5.82,13.523,5.821c5.146,0.004,10.877-7.501,13.312-12.037
									C128.998,212.905,141.222,178.666,146.392,165.773"/>
							</g>
						</g>
					</g>
					<path opacity="0.07" fill="#070707" d="M178.928,245.707c0,0,29.258,3.302,38.247-0.841c0,0-10.773,6.813-39.163,3.629
						L178.928,245.707z"/>
					<g>
						<g>
							<ellipse fill="#DCDFF2" cx="161.579" cy="315.955" rx="9.085" ry="11.19"/>
							<ellipse fill="#1F3B3F" cx="158.306" cy="315.955" rx="7.991" ry="9.843"/>
						</g>
						
							<path fill="none" stroke="#1F3B3F" stroke-width="2.4742" stroke-linecap="round" stroke-linejoin="round" stroke-miterlimit="10" d="
							M161.577,307.1c0,0,3.995-36.174,8.112-48.409c1.542-4.589,4.227-9.043,8.106-11.192"/>
					</g>
					<g>
						
							<path fill="none" stroke="#1F3B3F" stroke-width="2.4742" stroke-linecap="round" stroke-linejoin="round" stroke-miterlimit="10" d="
							M222.086,272.939c2.611-7.961,5.404-17.848,0.844-21.904"/>
						<g>
							
								<path fill="none" stroke="#1F3B3F" stroke-width="2.4742" stroke-linecap="round" stroke-linejoin="round" stroke-miterlimit="10" d="
								M201.294,313.932c0,0,1.848-46.76,22.542-40.162c13.078,4.17,12.921,40.162,12.921,40.162"/>
							<ellipse fill="#DCDFF2" cx="201.293" cy="315.281" rx="3.367" ry="3.851"/>
							<ellipse fill="#DCDFF2" cx="236.756" cy="316.52" rx="3.367" ry="3.849"/>
						</g>
					</g>
					<g>
						<g>
							<path fill="#514248" d="M283.135,389.182c0.979,1.646,0.438,3.77-1.204,4.748l-65.173,38.864
								c-1.642,0.982-3.771,0.439-4.753-1.205l-53.763-90.182c-0.986-1.646-0.449-3.773,1.196-4.748l65.173-38.863
								c1.646-0.981,3.774-0.444,4.753,1.202L283.135,389.182z"/>
							<path fill="#B4DFFF" d="M211.264,310.598c0.839,1.473,0.321,3.353-1.151,4.19l-27.542,15.662
								c-1.479,0.839-3.351,0.323-4.194-1.149l-3.476-6.117c-0.837-1.475-0.32-3.352,1.153-4.188l27.539-15.668
								c1.479-0.837,3.355-0.323,4.196,1.157L211.264,310.598z"/>
						</g>
						<path opacity="0.07" fill="#070707" d="M266.107,360.619l-58.58,42.748l-19.651-29.872c0,0,42.444-27.735,47.352-37.08
							c4.907-9.348,0.077-34.021,0.077-34.021L266.107,360.619z"/>
						<g>
							<path fill="#C4855B" d="M193.469,377.695c0,0-7.648,3.545-10.014,6.065c-2.37,2.519-6.702,8.874-2.17,12.611
								c4.535,3.74,12.816,5.918,18.325,3.945c5.506-1.975,6.29-8.336,6.29-8.336L193.469,377.695z"/>
							<path fill="#FFFFFF" d="M252.565,276.898c0,0,18.464,26.14,21.75,44.635c3.272,18.491,6.065,25.84-17.159,43.685
								c-22.804,17.523-50.77,35.502-50.77,35.502l-16.404-24.509c0,0,41.357-27.958,50.23-36.897
								c8.873-8.935-4.907-36.919-4.907-36.919"/>
						</g>
					</g>
				</g>
				<g>
					<g>
						
							<path fill="none" stroke="#2CA89F" stroke-width="2.2762" stroke-linecap="round" stroke-linejoin="round" stroke-miterlimit="10" d="
							M277.926,148.314c0,0,16.638-16.832,20.471-5.063C301.45,152.637,277.926,148.314,277.926,148.314z"/>
						
							<path fill="none" stroke="#2CA89F" stroke-width="2.2762" stroke-linecap="round" stroke-linejoin="round" stroke-miterlimit="10" d="
							M278.013,150.029c0,0,23.458-3.152,19.296,8.505C293.99,167.829,278.013,150.029,278.013,150.029z"/>
					</g>
					<g>
						<path fill="#32B8B1" d="M279.996,167.572c0,0-66.86,12.939-139.311-19.31c0,0,4.314-22.412,11.635-31.43
							c7.321-9.017,88.452-21.531,120.835,14.12c0.713,0.786,1.417,1.576,1.99,2.447c6.619,10.086,5.754,33.992,5.754,33.992"/>
						
							<path fill="none" stroke="#2CA89F" stroke-width="3.4143" stroke-linecap="round" stroke-linejoin="round" stroke-miterlimit="10" d="
							M269.229,133.73c0,0-59.931,8.767-111.838-14.404"/>
					</g>
				</g>
			</g>
			<g clip-path="url(#SVGID_2_)">
				<g>
					<g>
						<path fill="#FF7383" d="M419.265,644.653c-0.856-34.415,7.708-86.981,7.708-86.981c-4.829-9.837-8.596-32.253-12.4-40.404
							l40.975-8.898c2.612,22.097,5.858,48.546,5.051,54.721c-1.672,12.845-20.896,82.238-20.896,82.238l0,0
							c1.326,1.965,3.254,4.262,5.903,6.111c2.818,1.96,8.361,3.059,12.754,4.354c2.632,0.77-0.459,5.961-4.607,6.219
							c-9.504,0.592-28.085-1.563-34.171-5.861C416.421,653.798,417.818,648.341,419.265,644.653L419.265,644.653z"/>
						<path fill="#FF7383" d="M351.061,640.701l-0.059-0.018c4.432-19.485,7.734-35.392,29.364-82.651
							c2.822-6.159,3.623-18.925,2.265-31.495l40.31-1.21c-1.95,28.426-3.865,40.051-7.387,45.85
							c-6.578,10.839-44.193,72.445-45.772,75.024c1.176,1.998,2.903,4.319,5.32,6.263c2.671,2.148,7.296,3.744,11.586,5.338
							c2.572,0.953,2.257,4.828-1.797,5.757c-16.339,3.734-28.163-4.466-33.934-9.188
							C346.81,650.816,350.175,642.645,351.061,640.701z"/>
						<path fill="#2D2429" d="M351.002,640.684c0,0,4.811,7.739,10.831,11.123c6.024,3.385,17.021,2.741,17.021,2.741
							s7.972,1.66,10.782,4.687c1.126,1.214-0.581,3.301-3.705,4.492c-3.131,1.186-7.017,1.919-16.238,0.434
							c-9.223-1.482-12.879-4.465-15.153-6.312c-2.273-1.849-2.273-1.849-2.273-1.849l-0.95,3.37c0,0-4.88,0.662-5.307-1.432
							c0.337-2.092,0.443-2.751,1.361-8.459C348.291,643.775,351.002,640.684,351.002,640.684L351.002,640.684z"/>
						<path fill="#2D2429" d="M419.301,643.8c0,0,5.976,6.873,12.46,9.259c6.483,2.382,17.24,0,17.24,0s8.129,0.376,11.392,2.912
							c1.303,1.017-0.049,3.342-2.947,5.021c-2.9,1.676-6.62,3.016-15.962,3.016c-9.34,0-13.425-2.36-15.962-3.828
							c-2.538-1.467-2.538-1.467-2.538-1.467l-0.466,3.992c0,0-5.403,0.179-5.403-1.08c0-1.264,0-2.782,0-8.566
							C417.114,647.277,419.301,643.8,419.301,643.8L419.301,643.8z"/>
					</g>
				</g>
				<path fill="#F6B684" d="M359.577,311.444c-1.579,15.892,71.987,0.735,71.58-12.591c-0.388-12.556-4.021-35.058-6.441-43.555
					c-6.854-24.038-25.248-3.826-42.821-6.192C377.223,263.71,368.428,272.229,359.577,311.444z"/>
				<g>
					<path opacity="0.07" fill="#070707" d="M424.88,254.582c0,0-25.008,2.823-32.691-0.722c0,0,9.063,7.046,33.328,4.323
						L424.88,254.582z"/>
					<g>
						<path fill="#F6B684" d="M389.189,140.967c0,0-10.804,2.577-22.133,9.196c-11.614,6.786-23.777,17.826-25.406,34.692
							c-0.938,9.714-0.103,19.101,2.474,27.701c6.269,20.904,22.812,37.148,49.108,42.08c18.556,3.479,38.646,0.915,53.579-10.07
							c14.938-10.982,23.873-34.276,20.151-53.673c-3.722-19.397-12.644-29.69-26.425-38.656
							C426.758,143.271,408.965,139.518,389.189,140.967z"/>
						<g>
							<path fill="#D78A49" d="M412.423,218.281c2.985,3.719,9.412,4.885,10.839-0.942c0.475-1.945,3.537-1.35,3.061,0.607
								c-0.806,3.292-3.286,6.009-6.717,6.604c-3.926,0.68-7.396-1.562-9.756-4.5C408.588,218.479,411.172,216.727,412.423,218.281
								L412.423,218.281z"/>
						</g>
						<g>
							<path fill="#D78A49" d="M418.901,211.123c0.038,0,0.075,0,0.112-0.005c0.179-0.017,1.75-0.16,2.766-0.452
								c2.454-0.709,3.33-2.011,3.631-2.977c0.312-0.999,0.322-2.638-1.407-4.762c-1.535-1.886-1.805-5.698-1.776-7.01
								c0.015-0.69-0.537-1.266-1.229-1.277c-0.012,0-0.02,0-0.028,0c-0.681,0-1.237,0.544-1.255,1.228
								c-0.005,0.228-0.095,5.661,2.34,8.648c0.787,0.968,1.138,1.85,0.96,2.424c-0.167,0.535-0.854,1.001-1.928,1.311
								c-0.663,0.19-1.881,0.328-2.291,0.365c-0.693,0.062-1.206,0.673-1.142,1.362
								C417.711,210.632,418.257,211.123,418.901,211.123z"/>
						</g>
						<path opacity="0.32" fill="#E59A53" d="M464.299,221.386c-1.748,0.878-3.718,1.372-5.809,1.372
							c-7.146,0-12.937-5.792-12.937-12.936s5.791-12.938,12.937-12.938c2.679,0,5.169,0.813,7.231,2.208"/>
					</g>
					
						<ellipse transform="matrix(0.9976 -0.0694 0.0694 0.9976 -12.5236 31.186)" fill="#0E251F" cx="442.354" cy="195.747" rx="3.404" ry="4.81"/>
					<path fill="#0E251F" d="M391.706,200.941c0.186,2.654-1.186,4.909-3.061,5.04c-1.877,0.129-3.545-1.916-3.729-4.565
						c-0.185-2.65,1.188-4.907,3.062-5.038C389.858,196.251,391.521,198.293,391.706,200.941z"/>
				</g>
				<path fill="#BFD455" d="M362.247,363.18c-1.432-3.277-2.824-6.874-4.141-10.671c-9.387-27.062-23.153-70.039,8.658-90.909
					c2.814-1.846,11.74-3.896,11.74-3.896s25.715,14.097,47.013,0.479c16.837,10.975,18.611,12.618,17.839,29.442
					c-0.773,16.829,1.656,26.771,2.346,35.939c0.718,9.437,0.3,49.986,1.674,70.523c0.474,7.058-14.721,30.346-11.113,25.001
					l-75.94-6.416C360.321,412.674,375.542,393.554,362.247,363.18z"/>
				<path opacity="0.32" fill="#E59A53" d="M356.317,214.974c0,7.62,6.177,13.798,13.795,13.798c7.62,0,13.797-6.178,13.797-13.798
					c0-7.617-6.178-13.795-13.797-13.795C362.494,201.179,356.317,207.357,356.317,214.974z"/>
				<g>
					<path fill="#F6B684" d="M357.177,225.163c-0.714,0.195-2.324,0.438-3.102,0.438c-4.662,0-8.442-3.78-8.442-8.445
						c0-4.661,3.78-8.441,8.442-8.441c1.169,0,2.734-0.43,3.743,0c0,0-1.272,5.058-0.957,10.753
						C357.177,225.163,357.177,225.163,357.177,225.163z"/>
					<g opacity="0.37">
						<path fill="#D78A49" d="M349.903,218.936c0.609,0,1.148-0.438,1.25-1.062c0.572-3.505,3.834-3.989,3.973-4.009
							c0.69-0.091,1.18-0.728,1.091-1.417c-0.091-0.686-0.717-1.174-1.405-1.09c-1.822,0.217-5.454,1.779-6.16,6.11
							c-0.112,0.689,0.358,1.339,1.048,1.451C349.771,218.931,349.839,218.936,349.903,218.936z"/>
					</g>
				</g>
				<g>
					<g>
						<g>
							<g>
								<path fill="#331A13" d="M364.525,389.905c0,0-19.588,47.606-27.402,85.986c-6.218,30.536-10.643,101.652-12.193,129.436
									c-0.351,6.32,4.231,11.84,10.507,12.644c8.08,1.043,21.241,2.923,41.584,6.312c36.623,6.098,71.162-0.172,86.708-3.863
									c5.108-1.211,8.779-5.654,9.021-10.896c0.711-15.49,2.099-48.085,2.099-65.98c0-24.04-29.041-145.198-29.041-145.198
									S388.313,417.916,364.525,389.905z"/>
							</g>
						</g>
					</g>
					<path opacity="0.05" fill="#070707" d="M377.035,624.283c-20.595-3.087-33.717-4.967-41.714-6.077
						c-6.227-0.868-10.743-6.352-10.392-12.63c1.538-27.6,5.973-99.06,12.208-129.685
						C337.137,475.892,334.129,589.99,377.035,624.283z"/>
					<path opacity="0.05" fill="#070707" d="M428.833,500.359c0,0,14.109,38.395,10.828,49.729
						c-3.283,11.334-22.477,37.169-22.477,37.169s17.376-27.938,17.376-37.169C434.561,540.852,428.833,500.359,428.833,500.359z"/>
				</g>
				<path opacity="0.07" fill="#070707" d="M378.556,295.204c0,0-16.106,44.595-6.374,50.212c9.73,5.618,30.943,5.594,30.943,5.594
					s1.509,17.711,1.509,19.619c-6.202,4.601-34.249,4.415-38.6,4.415l-0.734-3.015c0,0-6.611-23.96-4.131-37.35
					C363.646,321.294,378.556,295.204,378.556,295.204z"/>
				<path fill="#FFFFFF" d="M375.427,257.932c0,0,28.196,39.888,34.084,60.32c3.207,11.123,6.699,77.93,0.956,122.878
					c-5.743,44.953-1.613,108.958-1.613,108.958s-71.226,1.841-83.943-8.186c0,0-0.254-58.619,9.715-91.021
					c9.969-32.405,18.694-102.487,18.694-102.487s-31.118-34.889-2.357-71.645C362.618,261.854,375.427,257.932,375.427,257.932z"/>
				<path fill="#FFFFFF" d="M428.668,260.144c0,0,3.07,55.522,2.491,84.188c-0.579,28.661,12.614,133.673,17.544,164.038
					c4.932,30.365,6.181,37.891,6.181,37.891h26.62c0,0-10.526-70.509-17.896-110.335c-3.507-18.929-6.323-43.968-8.561-67.764
					c36.645,1.118,6.143-64.438,3.793-71.539c-6.496-19.639-15.31-27.048-15.31-27.048L428.668,260.144z"/>
				<polyline opacity="0.07" fill="#070707" points="443.531,269.574 443.172,296.48 439.2,295.539 443.172,302.257 
					431.159,326.942 439.667,301.789 435.615,291.979 440.136,292.444 438.375,266.301 443.531,269.574 				"/>
				<polygon opacity="0.07" fill="#070707" points="386.821,414.914 360.321,412.674 359.551,419.88 386.821,422.75 				"/>
				<polygon opacity="0.07" fill="#070707" points="360.614,264.284 371.164,296.48 377.513,296.65 373.073,301.088 
					410.466,326.792 369.221,302.957 372.139,299.845 366.998,299.845 357.582,267.434 				"/>
				<g>
					<g>
						
							<ellipse transform="matrix(-0.9931 -0.1172 0.1172 -0.9931 824.6691 700.4341)" fill="#DCDFF2" cx="432.92" cy="325.98" rx="9.086" ry="11.192"/>
						<path fill="#1F3B3F" d="M428.234,325.428c-0.638,5.401,2.4,10.194,6.782,10.711c4.386,0.517,8.453-3.439,9.089-8.84
							c0.638-5.398-2.398-10.195-6.783-10.712C432.939,316.07,428.87,320.029,428.234,325.428z"/>
					</g>
					
						<path fill="none" stroke="#1F3B3F" stroke-width="2.4742" stroke-linecap="round" stroke-linejoin="round" stroke-miterlimit="10" d="
						M433.959,317.188c0,0,0.268-36.394-2.39-49.027c-0.993-4.736-3.139-9.477-6.74-12.062"/>
				</g>
				<path fill="#E24252" d="M332.231,250.925c-17.901-3.622-30.153-20.399-24.44-33.862c5.713-13.463,8.81-40.429,25.783-69.755
					c12.059-20.836,48.822-30.457,75.937-26.629c25.874,3.651,46.553,8.023,61.174,55.871c14.62,47.848,14.928,42.056,19.213,48.123
					c4.285,6.065-11.501,25.305-47.545,22.838l5.034-2.944c0,0,13.014-8.784,15.979-33.444
					c2.965-24.661-12.513-50.959-12.513-50.959s-40.363,28.284-72.107,33.12c-17.321,2.639-19.05,25.348-13.036,32.32
					C377.109,238.816,361.173,256.781,332.231,250.925z"/>
				<g>
					
						<path fill="none" stroke="#1F3B3F" stroke-width="2.4742" stroke-linecap="round" stroke-linejoin="round" stroke-miterlimit="10" d="
						M382.623,287.889c-2.613-7.961-7.646-28.467-3.086-32.523"/>
					<g>
						
							<path fill="none" stroke="#1F3B3F" stroke-width="2.4742" stroke-linecap="round" stroke-linejoin="round" stroke-miterlimit="10" d="
							M401.752,328.688c0,0-1.848-46.76-22.54-40.163c-13.079,4.172-12.922,40.163-12.922,40.163"/>
						<path fill="#DCDFF2" d="M398.388,330.036c0,2.129,1.507,3.849,3.364,3.849c1.861,0,3.369-1.72,3.369-3.849
							c0-2.124-1.508-3.847-3.369-3.847C399.895,326.189,398.388,327.912,398.388,330.036z"/>
						<ellipse fill="#DCDFF2" cx="366.291" cy="331.274" rx="3.367" ry="3.85"/>
					</g>
				</g>
				<g>
					<g>
						<path fill="#E6E7E9" d="M363.696,295.204l20.11,43.955l9.375-2.284l30.41,21.035c0,0-23.778,13.487-38.067,15.548
							c-14.292,2.058-29.154-9.691-36.243-27.14c-7.088-17.446-8.003-19.505-8.003-19.505L363.696,295.204z"/>
						<path fill="#FFFFFF" d="M363.696,295.204l20.11,43.955l9.375-2.284l29.082,20.113c0,0-22.45,12.584-36.739,14.641
							c-14.292,2.058-28.698-8.617-35.786-26.066c-7.087-17.449-8.459-18.749-8.459-18.749L363.696,295.204z"/>
						<path fill="#E6E7E9" d="M392.345,323.23l-4.993,16.388c0,0,47.496,30.495,65.28,30.636
							c17.606,0.146,21.034-10.973,19.663-21.032c-1.373-10.062-23.928-12.074-23.928-12.074L392.345,323.23z"/>
						<path fill="#FEFEFE" d="M392.039,324.297l-3.66,14.635c0,0,46.697,29.122,64.48,29.267
							c17.605,0.145,20.807-8.917,19.436-18.977c-1.373-10.062-1.144-6.404-1.144-6.404L392.039,324.297z"/>
						<path fill="#F6B684" d="M391.651,325.449l-2.892,11.96l-5.408-0.534l-5.576-10.896
							C377.775,325.979,384.335,323.164,391.651,325.449z"/>
						<path fill="#F6B684" d="M445.314,330.535l1.143,6.34l16.234,3.887c0,0,4.346-6.404,0-11.435
							c-2.561-2.964-7.605-3.656-7.605-3.656l-9.771,4.115"/>
					</g>
					<polygon opacity="0.07" fill="#070707" points="447.387,309.768 448.703,328.358 452.066,326.942 					"/>
				</g>
			</g>
		</g>
		
			<line fill="none" stroke="#4ECCC2" stroke-width="6" stroke-linecap="round" stroke-linejoin="round" stroke-miterlimit="10" x1="100.104" y1="439.985" x2="658.076" y2="439.985"/>
	</g>
</g>
</svg>
